#!OML:ASF F:\VICON\USERDATA\INSTALL\rory3\rory3.ASF
:FULLY-SPECIFIED
:DEGREES
3634
root -2.78694 17.4357 0.123016 7.81242 -44.3547 0.651529
lowerback 13.4144 4.51914 -0.646235
upperback 0.554472 5.90276 0.421248
thorax -7.02724 2.89183 -0.32831
lowerneck -26.0371 -2.53378 -9.11008
upperneck 20.4543 -2.28634 8.63682
head 11.1282 -0.648295 4.31511
rclavicle 4.1546e-014 -1.19271e-014
rhumerus -3.36696 18.5248 -84.7766
rradius 113.482
rwrist -8.65494
rhand -9.95686 27.4506
rfingers 7.12502
rthumb 16.0252 -1.90663
lclavicle 4.1546e-014 -1.19271e-014
lhumerus -18.7069 -12.3841 83.1722
lradius 131.392
lwrist 7.56033
lhand -14.3799 9.35523
lfingers 7.12502
lthumb 11.7628 39.0049
rfemur -1.76627 -4.25882 10.499
rtibia 45.4283
rfoot -13.4578 -7.62371
rtoes 7.29774
lfemur -42.4091 3.89218 -13.2273
ltibia 49.2053
lfoot 7.5497 -12.8984
ltoes -23.0714
3635
root -2.73086 17.3466 0.0572037 7.78734 -45.2786 0.457949
lowerback 13.5911 4.47397 -0.225027
upperback 0.737735 5.91109 0.572668
thorax -6.90355 2.88371 -0.408524
lowerneck -26.0204 -2.39566 -8.95869
upperneck 20.4664 -2.09442 8.41168
head 11.1044 -0.578513 4.23672
rclavicle 8.78628e-014 -1.27222e-014
rhumerus -2.40815 18.4694 -84.8765
rradius 115.551
rwrist -8.2702
rhand -10.2093 27.7035
rfingers 7.12502
rthumb 15.7821 -1.67312
lclavicle 8.78628e-014 -1.27222e-014
lhumerus -17.1681 -12.5017 82.6386
lradius 131.198
lwrist 7.577
lhand -14.3798 9.00458
lfingers 7.12502
lthumb 11.7629 38.6543
rfemur -1.29716 -3.4871 10.4568
rtibia 45.794
rfoot -12.0298 -7.69213
rtoes 7.80631
lfemur -42.6869 4.49462 -13.2726
ltibia 51.3567
lfoot 6.75727 -13.486
ltoes -20.5818
3636
root -2.68008 17.247 0.00192235 7.75861 -45.9779 0.287382
lowerback 13.5098 4.28279 -0.227472
upperback 0.958727 5.68264 1.02671
thorax -6.66983 2.78016 0.130025
lowerneck -25.8027 -2.0976 -8.91795
upperneck 20.3479 -1.6172 8.07448
head 10.9673 -0.404809 4.17534
rclavicle 3.1408e-014 2.14687e-014
rhumerus -1.52644 19.2098 -84.6882
rradius 117.544
rwrist -7.45305
rhand -10.6831 27.8336
rfingers 7.12502
rthumb 15.3258 -1.57848
lclavicle 3.1408e-014 2.14687e-014
lhumerus -15.8863 -12.0392 82.3697
lradius 131.104
lwrist 7.19295
lhand -14.1715 9.22305
lfingers 7.12502
lthumb 11.9637 38.8612
rfemur -0.588829 -2.98015 10.4347
rtibia 45.6048
rfoot -10.3169 -7.60022
rtoes 6.07273
lfemur -42.8393 4.70924 -13.2697
ltibia 52.9442
lfoot 5.08516 -13.3006
ltoes -20.1447
3637
root -2.63607 17.1419 -0.0519281 7.70922 -46.5176 0.290712
lowerback 13.3815 4.05509 -0.342085
upperback 1.05328 5.38403 1.36716
thorax -6.53872 2.64333 0.621278
lowerneck -25.559 -1.79683 -8.68147
upperneck 20.3303 -1.21377 7.70975
head 10.8715 -0.253142 4.06118
rclavicle 6.99722e-014 -7.15625e-015
rhumerus -1.11656 20.0394 -84.6514
rradius 119.558
rwrist -6.63394
rhand -11.0361 27.9166
rfingers 7.12502
rthumb 14.9857 -1.52122
lclavicle 6.99722e-014 -7.15625e-015
lhumerus -14.8856 -11.5723 82.0752
lradius 130.997
lwrist 6.68241
lhand -14.5279 9.64022
lfingers 7.12502
lthumb 11.6201 39.298
rfemur 0.223565 -2.58098 10.4135
rtibia 44.877
rfoot -9.01461 -7.31664
rtoes 1.17191
lfemur -42.991 4.74284 -13.3964
ltibia 54.0267
lfoot 2.08081 -12.3533
ltoes -24.3102
3638
root -2.60458 17.0262 -0.106683 7.77629 -47.2772 0.326993
lowerback 13.0984 3.94948 -0.408372
upperback 1.12146 5.24225 1.51769
thorax -6.32643 2.57962 0.865189
lowerneck -25.4432 -1.63619 -8.54309
upperneck 20.3805 -1.02765 7.6022
head 10.8494 -0.173734 4.028
rclavicle 4.19436e-014 7.95139e-016
rhumerus -0.872272 20.7327 -84.7447
rradius 121.5
rwrist -6.13109
rhand -11.2888 28.0935
rfingers 7.12502
rthumb 14.7423 -1.36224
lclavicle 4.19436e-014 7.95139e-016
lhumerus -13.8508 -11.194 81.691
lradius 130.782
lwrist 6.26389
lhand -14.9539 9.97725
lfingers 7.12502
lthumb 11.2092 39.6578
rfemur 0.941785 -1.88774 10.5177
rtibia 43.6988
rfoot -8.82915 -7.19334
rtoes -8.04156
lfemur -43.3107 4.57179 -13.1803
ltibia 54.5472
lfoot 0.233503 -10.7177
ltoes -21.1883
3639
root -2.58205 16.9046 -0.160737 7.97358 -48.0915 0.348867
lowerback 12.6769 3.84359 -0.684172
upperback 1.11865 5.07999 1.77044
thorax -6.13893 2.51343 1.3412
lowerneck -25.4466 -1.48328 -8.65751
upperneck 20.5874 -0.782219 7.61223
head 10.9033 -0.0730152 4.09696
rclavicle 3.83654e-014 -1.43125e-014
rhumerus -0.848616 21.733 -84.8066
rradius 123.314
rwrist -5.79675
rhand -11.4419 28.4332
rfingers 7.12502
rthumb 14.5947 -1.03334
lclavicle 3.83654e-014 -1.43125e-014
lhumerus -13.0788 -10.5392 81.4569
lradius 130.647
lwrist 5.91433
lhand -14.5523 9.90703
lfingers 7.12502
lthumb 11.5965 39.5662
rfemur 1.66992 -1.16182 10.6951
rtibia 42.3238
rfoot -11.0942 -6.83756
rtoes -16.9868
lfemur -43.6561 4.42281 -12.8475
ltibia 54.9205
lfoot -1.80584 -10.1885
ltoes -18.463
3640
root -2.55668 16.7758 -0.224551 8.11281 -48.7822 0.477083
lowerback 12.3535 3.82661 -1.00535
upperback 1.10584 5.02323 1.89853
thorax -6.01041 2.49736 1.68471
lowerneck -25.7126 -1.443 -8.53405
upperneck 20.8685 -0.764647 7.61817
head 11.0539 -0.054154 4.09439
rclavicle 3.3197e-014 -1.11319e-014
rhumerus -1.04421 22.3793 -84.9758
rradius 125.021
rwrist -5.2614
rhand -11.5537 28.6451
rfingers 7.12502
rthumb 14.4871 -0.829109
lclavicle 3.3197e-014 -1.11319e-014
lhumerus -11.9803 -10.2697 81.0483
lradius 130.471
lwrist 5.6573
lhand -14.2052 9.80498
lfingers 7.12502
lthumb 11.9312 39.445
rfemur 2.48672 -0.701645 10.8045
rtibia 41.0688
rfoot -15.5596 -5.46247
rtoes -23.4762
lfemur -44.0573 4.18302 -12.5018
ltibia 55.2725
lfoot -3.59962 -10.3281
ltoes -18.3859
3641
root -2.52452 16.6392 -0.30403 8.0522 -49.3216 0.825098
lowerback 12.1621 3.87972 -1.16969
upperback 1.19091 5.06135 1.74943
thorax -5.81585 2.51794 1.62879
lowerneck -26.0625 -1.55187 -8.33518
upperneck 20.8891 -1.02183 7.82352
head 11.1506 -0.122345 4.10215
rclavicle -1.43125e-014 -3.18055e-015
rhumerus -1.20896 22.5586 -85.3358
rradius 126.601
rwrist -4.54432
rhand -11.858 28.7805
rfingers 7.12502
rthumb 14.1938 -0.714553
lclavicle -1.43125e-014 -3.18055e-015
lhumerus -10.225 -10.3727 80.3088
lradius 130.158
lwrist 5.60848
lhand -14.1346 9.99446
lfingers 7.12502
lthumb 11.9993 39.6305
rfemur 3.24031 -0.506279 10.7856
rtibia 40.1102
rfoot -19.8446 -4.11103
rtoes -17.0291
lfemur -44.5695 3.91005 -12.2594
ltibia 55.7699
lfoot -5.24985 -10.2056
ltoes -19.9383
